<svg width="4" height="13" viewBox="0 0 4 13" fill="none" xmlns="http://www.w3.org/2000/svg">
	<path d="M1.73333 3.46667C2.68905 3.46667 3.46667 2.68905 3.46667 1.73333C3.46667 0.777617 2.68905 0 1.73333 0C0.777617 0 0 0.777617 0 1.73333C0 2.68905 0.777617 3.46667 1.73333 3.46667Z" fill="#AFAFAF"/>
	<path d="M1.73333 9.53333C0.777617 9.53333 0 10.3109 0 11.2667C0 12.2224 0.777617 13 1.73333 13C2.68905 13 3.46667 12.2224 3.46667 11.2667C3.46667 10.3109 2.68905 9.53333 1.73333 9.53333Z" fill="#AFAFAF"/>
	<path d="M1.73333 4.76666C0.777617 4.76666 0 5.54428 0 6.5C0 7.45571 0.777617 8.23333 1.73333 8.23333C2.68905 8.23333 3.46667 7.45571 3.46667 6.5C3.46667 5.54428 2.68905 4.76666 1.73333 4.76666Z" fill="#AFAFAF"/>
</svg>
